<svg xmlns="http://www.w3.org/2000/svg" width="1080" height="1080" viewBox="0 0 1080 1080">
  <defs>
    <style>
      .cls-1 {
        fill: #fafbfc;
        stroke: #000;
        stroke-width: 1px;
        fill-rule: evenodd;
      }
    </style>
  </defs>
  <path id="ZWhiite" class="cls-1" d="M325.885,604.407a41.171,41.171,0,0,0-26.251-10.472c-8.361-.277-17.009-0.04-25.1,1.773a240.821,240.821,0,0,0-36.221,10.875c-30.684,12.175-61.012,25.177-91.53,37.737-5.905,2.46-10.864-5-6.068-9.149,0.666-.58,1.332-1.147,1.966-1.734,45.841-42.172,93.716-81.7,151.511-108.212a77.024,77.024,0,0,0,10.234-5.864c3.835-2.724,7.74-5.515,10.742-8.973,11.305-13.013,9.492-30.071-4.842-39.893A57.494,57.494,0,0,0,289,461.555c-12.958-2.409-26.3-4.25-39.443-4.112-35.8.371-107.294,12.407-141.672,21.666a59.578,59.578,0,0,0-25.154,13.37C61.983,511.5,67.275,540.04,93.6,550.991c10.2,4.2,75.956-8.547,93.183-8.766a3.908,3.908,0,0,1,2.351,7.143,566.4,566.4,0,0,0-63.987,53.179c-31.486,30.624-61.862,68.367-77.939,88.81a36.032,36.032,0,0,0-6.784,14.091c-2.68,12.341,7.445,22.114,20.268,19.682,5.2-.988,10.1-3.639,15.025-5.763,12.109-5.224,23.85-11.41,36.29-15.728,48.854-16.959,98.536-30.468,151.083-30.918a191.747,191.747,0,0,0,28.511-2.435,82.646,82.646,0,0,0,19.783-5.242,54.781,54.781,0,0,0,17.407-12.088c13.728-14.415,12.117-35.346-2.9-48.549h0Zm183.085,72.35c-11.756,26-66.185,120.921-78.24,168.193-16.284,63.859,12.824,78.979,28.63,79.045,35.406,0.148,39.5-49.605,49.409-120.433,7.6-54.3,38.88-128.4,82.189-196.65,26.668-42.017,65.519-75.641,78.54-89.953,4.346-4.78,8.78-9.583,12.341-14.936a70.832,70.832,0,0,0,8.787-17.107c3.485-10.82,1.24-20.988-7.33-28.833-8.6-7.87-19.122-9.21-29.375-4.56a71.817,71.817,0,0,0-19.793,13.528c-9.87,9.516-18.939,19.9-27.921,30.279-39.084,45.157-86.062,80.427-137.626,109.869a250.472,250.472,0,0,1-30.706,14.314c-6.687,2.693-14.576,5.213-20.188-1.715-4.606-5.684-1.907-12.4.6-18.43,8.146-19.626,20.082-36.8,34.015-52.734,7.436-8.5,15.374-16.795,21.364-26.271,5.51-8.723,10.472-18.532,12.6-28.521,6.126-28.808-15.089-53.224-44.589-52.882-13.477.155-25.9,4.318-35.524,13.4-10.493,9.9-20.913,20.447-28.835,32.4-19.387,29.261-31.845,61.681-38.349,96.233-3.309,17.557-4.641,35.272-1.393,53.037,6.915,37.831,32.381,58.155,70.475,54.2,14.251-1.477,28.507-5.862,41.985-10.962,15.813-5.99,30.725-14.345,46.158-21.377,5.589-2.549,10.891-7.479,19.284-3.217C517.136,662.635,512.242,669.525,508.97,676.757Zm298.96-48.409c26.828-37.355-26.819-91.248-70.461-51.787-5.736,5.188-84.857,83.022-30.127-21.807,10.411-20.125,32.367-70.894,57.787-119.642,44.795-85.9,135.68-124.647,117-173.2-9.958-25.875-49.736-31.446-70.046-8.337-43.8,49.829-58.729,103.349-81.682,152.286-41.446,88.361-89.69,186.473-105.046,227.025a99.7,99.7,0,0,0-6.568,30.542c-0.7,16.62,10.281,23,26.729,22.12C678.328,683.8,774.393,675.053,807.93,628.348Zm43.547-102.477c-8.833,11.975-18.124,23.768-25.634,36.443-10.462,17.658-12.49,37.1-7.432,56.5,11.769,45.1,43.426,73,91.511,84.3,30.8,7.231,59.036-.027,83.407-18.972,21.5-16.713,34.571-38.333,41.621-63.109,12.63-44.43,5.1-86.454-19.18-126.136-14.37-23.476-33.981-43.032-55.937-60.577a98.174,98.174,0,0,0-36.488-18.679C879.024,404,843.326,435.258,854.033,476.5c1.409,5.436,4.183,10.579,6.43,15.82,1.9,4.452,3.955,8.849,6.546,14.611C861.857,513.171,856.327,519.3,851.477,525.871Zm82.5,96.662c-4.542,11.509-15.044,17.825-28.241,17.912-36.343.239-61.877-29.066-53.75-61.808,3.764-15.157,10.225-29.15,22.5-40.218,10.148-9.15,17.5-9.392,26.941-.427,20,18.987,33.829,40.881,36.133,69.383C936.6,611.629,936.041,617.335,933.98,622.533Z"/>
</svg>
