<svg xmlns="http://www.w3.org/2000/svg" width="1080" height="1080" viewBox="0 0 1080 1080">
  <defs>
    <style>
      .cls-1 {
        fill: #0d0d0d;
        stroke: #000;
        stroke-width: 1px;
        fill-rule: evenodd;
      }
    </style>
  </defs>
  <path id="Z" class="cls-1" d="M348.6,572.151A39.7,39.7,0,0,0,323.3,562.058c-8.06-.266-16.4-0.038-24.2,1.71a232.16,232.16,0,0,0-34.918,10.48c-29.581,11.734-58.818,24.264-88.239,36.368-5.692,2.372-10.473-4.822-5.849-8.817,0.642-.559,1.283-1.106,1.9-1.671,44.192-40.643,90.346-78.733,146.062-104.287a74.061,74.061,0,0,0,9.866-5.652c3.7-2.624,7.462-5.315,10.356-8.648,10.9-12.54,9.15-28.98-4.668-38.445a55.427,55.427,0,0,0-20.556-8.616c-12.492-2.322-25.35-4.1-38.025-3.963-34.511.358-103.435,11.957-136.577,20.88A57.461,57.461,0,0,0,114.2,464.282c-20.005,18.326-14.9,45.837,10.473,56.39,9.837,4.049,73.224-8.237,89.831-8.448a3.766,3.766,0,0,1,2.266,6.884,546.148,546.148,0,0,0-61.685,51.251c-30.354,29.513-59.637,65.887-75.137,85.588a34.734,34.734,0,0,0-6.54,13.58c-2.583,11.894,7.178,21.313,19.539,18.969,5.011-.953,9.737-3.507,14.484-5.554,11.674-5.035,22.993-11,34.985-15.158,47.1-16.344,94.992-29.363,145.65-29.8a184.974,184.974,0,0,0,27.486-2.346,79.7,79.7,0,0,0,19.071-5.052A52.828,52.828,0,0,0,351.4,618.94c13.234-13.893,11.681-34.065-2.8-46.789h0Zm176.514,69.712c-11.408,25.024-64.154,116.343-75.912,161.865-15.883,61.5,12.134,76.152,27.371,76.261,34.132,0.245,38.223-47.692,47.981-115.921,7.481-52.309,37.853-123.634,79.8-189.28,25.831-40.415,63.381-72.707,75.975-86.463,4.2-4.593,8.492-9.21,11.941-14.358a68.263,68.263,0,0,0,8.52-16.461c3.392-10.417,1.257-20.223-6.983-27.809-8.27-7.609-18.407-8.93-28.305-4.479a69.231,69.231,0,0,0-19.12,12.98c-9.543,9.142-18.315,19.121-27,29.1-37.809,43.406-83.2,77.26-133,105.486a241.417,241.417,0,0,1-29.642,13.705c-6.455,2.576-14.067,4.982-19.457-1.711-4.424-5.491-1.8-11.953.629-17.76,7.911-18.891,19.467-35.408,32.944-50.723,7.194-8.173,14.87-16.14,20.673-25.256,5.336-8.39,10.149-17.83,12.226-27.45,5.989-27.745-14.392-51.336-42.832-51.092-12.993.11-24.985,4.085-34.286,12.811-10.143,9.515-20.219,19.645-27.891,31.143-18.775,28.143-30.878,59.351-37.248,92.631-3.241,16.911-4.577,33.979-1.5,51.109,6.557,36.479,31.048,56.139,67.784,52.442,13.742-1.382,27.5-5.567,40.507-10.443,15.261-5.727,29.66-13.735,44.558-20.468,5.4-2.44,10.521-7.176,18.6-3.044C533.031,628.276,528.293,634.9,525.117,641.863Zm288.2-46.639c25.863-36-25.855-87.939-67.926-49.909-5.531,5-81.806,80.011-29.044-21.016,10.036-19.395,31.2-68.323,55.708-115.3,43.185-82.782,130.8-120.126,112.794-166.918-9.6-24.937-47.948-30.306-67.527-8.035-42.222,48.022-56.617,99.6-78.744,146.763C698.616,465.962,652.108,560.516,637.3,599.6a96.06,96.06,0,0,0-6.331,29.434c-0.67,16.017,9.911,22.166,25.768,21.318C688.371,648.666,780.981,640.235,813.312,595.224Zm41.981-98.761c-8.515,11.541-17.472,22.907-24.712,35.122-10.086,17.017-12.041,35.753-7.165,54.446,11.346,43.461,41.865,70.354,88.22,81.24,29.688,6.969,56.913-.026,80.407-18.284,20.727-16.107,33.327-36.943,40.127-60.819,12.17-42.82,4.92-83.319-18.49-121.562-13.856-22.625-32.762-41.472-53.928-58.38a94.643,94.643,0,0,0-35.176-18c-42.727-11.217-77.141,18.912-66.819,58.653,1.358,5.239,4.033,10.2,6.2,15.246,1.834,4.291,3.812,8.528,6.311,14.082C865.3,484.224,859.969,490.133,855.293,496.463Zm79.536,93.157c-4.378,11.092-14.5,17.178-27.225,17.262-35.037.231-59.652-28.012-51.818-59.566,3.629-14.608,9.858-28.093,21.692-38.76,9.784-8.818,16.872-9.051,25.972-.411,19.285,18.3,32.612,39.4,34.834,66.866C937.359,579.111,936.816,584.61,934.829,589.62Z"/>
</svg>
