<svg xmlns="http://www.w3.org/2000/svg" width="1080" height="1080" viewBox="0 0 1080 1080">
  <defs>
    <style>
      .cls-1 {
        fill: #0d0d0d;
        stroke: #000;
        stroke-width: 1px;
        fill-rule: evenodd;
      }
    </style>
  </defs>
  <path id="Z_" data-name="Z " class="cls-1" d="M1022.88,584.9c-26.167-23.02-57.556-35.618-92.08-36.763-29.328-.971-59.663-0.14-88.043,6.225-43.115,9.654-86.153,21.92-127.055,38.176-107.635,42.739-214.02,88.377-321.074,132.468-20.714,8.638-38.108-17.565-21.283-32.116,2.335-2.035,4.67-4.027,6.9-6.085,160.8-148.04,328.741-286.783,531.474-379.863a269.9,269.9,0,0,0,35.9-20.585c13.456-9.561,27.151-19.36,37.683-31.5,39.655-45.678,33.3-105.559-16.986-140.036-21.833-14.974-48.617-26.508-74.8-31.382-45.452-8.457-92.239-14.919-138.359-14.437-125.575,1.3-376.367,43.554-496.962,76.057-32.848,8.87-63,23.8-88.235,46.932-72.793,66.753-54.229,166.958,38.108,205.4,35.794,14.748,266.44-30,326.869-30.772,13.96-.181,19.671,17.336,8.245,25.077-12.865,8.715-121.493,86.414-224.454,186.678-110.449,107.5-217,239.992-273.4,311.752-11.171,14.226-20.007,32.052-23.8,49.464-9.4,43.323,26.117,77.63,71.1,69.09,18.236-3.47,35.43-12.773,52.7-20.229,42.477-18.338,83.663-40.054,127.3-55.211C444,873.709,618.274,826.287,802.6,824.707a672.254,672.254,0,0,0,100.013-8.547c23.781-3.795,47.786-9.025,69.395-18.4a192.227,192.227,0,0,0,61.062-42.433c48.15-50.6,42.5-124.079-10.19-170.425h0Z"/>
</svg>
