<svg xmlns="http://www.w3.org/2000/svg" width="1080" height="1080" viewBox="0 0 1080 1080">
  <defs>
    <style>
      .cls-1 {
        fill: #fafbfc;
        stroke: #000;
        stroke-width: 1px;
        fill-rule: evenodd;
      }
    </style>
  </defs>
  <path id="ZW" class="cls-1" d="M1003.77,596.376c-24.97-21.968-54.917-33.991-87.855-35.083-27.981-.927-56.923-0.134-84,5.941-41.134,9.213-82.2,20.918-121.219,36.431C608.007,644.451,506.508,688,404.372,730.08c-19.762,8.243-36.358-16.762-20.306-30.648,2.228-1.943,4.456-3.844,6.58-5.807,153.415-141.276,313.639-273.679,507.06-362.506a257.373,257.373,0,0,0,34.248-19.644c12.838-9.124,25.905-18.475,35.952-30.06,37.834-43.591,31.765-100.735-16.2-133.638-20.83-14.289-46.384-25.3-71.361-29.947-43.365-8.071-88-14.238-132-13.778C628.53,105.3,389.257,145.617,274.2,176.634c-31.339,8.465-60.109,22.713-84.182,44.788-69.449,63.7-51.738,159.328,36.358,196.01,34.149,14.075,254.2-28.63,311.854-29.365C551.55,387.894,557,404.61,546.1,412c-12.274,8.316-115.912,82.465-214.144,178.147C226.579,692.732,124.921,819.171,71.115,887.651c-10.657,13.576-19.088,30.588-22.7,47.2-8.968,41.344,24.917,74.085,67.83,65.935,17.4-3.311,33.8-12.191,50.283-19.306,40.525-17.5,79.819-38.224,121.452-52.689,163.5-56.81,329.769-102.065,505.629-103.573a641.227,641.227,0,0,0,95.418-8.156c22.689-3.622,45.591-8.613,66.208-17.559a183.307,183.307,0,0,0,58.25-40.5c45.95-48.29,40.56-118.409-9.71-162.637h0Z"/>
</svg>
